<?xml version="1.0" encoding="iso-8859-1"?>
<!-- Generator: Adobe Illustrator 19.0.0, SVG Export Plug-In . SVG Version: 6.00 Build 0)  -->
<svg version="1.1" id="Layer_1" xmlns="http://www.w3.org/2000/svg" xmlns:xlink="http://www.w3.org/1999/xlink" x="0px" y="0px"
	 viewBox="0 0 512 512" style="enable-background:new 0 0 512 512;" xml:space="preserve">
<circle style="fill:#FFBBD5;" cx="256" cy="256" r="256"/>
<g>
	<path style="fill:#FF9CC2;" d="M286.637,510.171l-90.919-90.919l-13.845,11.436l-22.742,14.774l64.478,64.478
		C244.526,512.593,265.706,512.679,286.637,510.171z"/>
	<path style="fill:#FF9CC2;" d="M511.66,269.076L402.846,160.261l-0.974,1.133l-38.285-38.285l-38.198,47.7l-26.362,24.064
		l-196.553,64.734l238.085,238.083c35.23-12.297,68.308-32.52,96.461-60.673C483.68,390.359,508.554,330.168,511.66,269.076z"/>
</g>
<g>
	<path style="fill:#FC6F58;" d="M199.113,342.628c0-7.14,5.789-12.928,12.929-12.928c7.14,0,12.929,5.789,12.929,12.928
		c0-7.14,5.789-12.928,12.929-12.928c7.14,0,12.929,5.789,12.929,12.928c0,12.362-25.859,27.15-25.859,27.15
		S199.113,355.687,199.113,342.628z"/>
	<path style="fill:#FC6F58;" d="M284.446,399.517c0-7.14,5.789-12.928,12.929-12.928s12.929,5.789,12.929,12.928
		c0-7.14,5.789-12.928,12.929-12.928c7.14,0,12.929,5.789,12.929,12.928c0,12.362-25.859,27.15-25.859,27.15
		S284.446,412.575,284.446,399.517z"/>
	<path style="fill:#FC6F58;" d="M341.335,325.816c0-7.14,5.789-12.928,12.929-12.928s12.929,5.789,12.929,12.928
		c0-7.14,5.789-12.928,12.929-12.928c7.14,0,12.929,5.789,12.929,12.928c0,12.362-25.859,27.15-25.859,27.15
		S341.335,338.877,341.335,325.816z"/>
	<path style="fill:#FC6F58;" d="M147.396,427.961c0-7.14,5.789-12.928,12.929-12.928s12.929,5.789,12.929,12.928
		c0-7.14,5.789-12.928,12.929-12.928s12.929,5.789,12.929,12.928c0,12.362-25.859,27.15-25.859,27.15
		S147.396,441.02,147.396,427.961z"/>
</g>
<g>
	<path style="fill:#F1543F;" d="M224.971,342.628c0-7.14,5.789-12.928,12.929-12.928c7.14,0,12.929,5.789,12.929,12.928
		c0,12.362-25.859,27.15-25.859,27.15V342.628z"/>
	<path style="fill:#F1543F;" d="M310.305,399.517c0-7.14,5.789-12.928,12.929-12.928c7.14,0,12.929,5.789,12.929,12.928
		c0,12.362-25.859,27.15-25.859,27.15V399.517z"/>
	<path style="fill:#F1543F;" d="M367.194,325.816c0-7.14,5.789-12.928,12.929-12.928c7.14,0,12.929,5.789,12.929,12.928
		c0,12.362-25.859,27.15-25.859,27.15V325.816z"/>
	<path style="fill:#F1543F;" d="M173.254,427.961c0-7.14,5.789-12.928,12.929-12.928s12.929,5.789,12.929,12.928
		c0,12.362-25.859,27.15-25.859,27.15V427.961z"/>
</g>
<path style="fill:#84DBFF;" d="M378.184,145.92c-5.856-20.065-24.376-34.728-46.33-34.728c-2.181,0-4.324,0.159-6.427,0.438
	c-13.038-16.041-32.92-26.296-55.203-26.296c-25.619,0-48.066,13.553-60.583,33.875c-3.396-0.727-6.915-1.121-10.528-1.121
	c-18.148,0-34.035,9.669-42.794,24.138c-39.214,0.069-70.984,31.877-70.984,71.108c0,36.985,28.238,67.365,64.329,70.782
	c9.79,17.18,28.26,28.774,49.449,28.774c16.996,0,32.242-7.463,42.667-19.28c10.424,11.817,25.671,19.28,42.667,19.28
	c22.249,0,41.5-12.779,50.852-31.389c6.423,1.907,13.219,2.944,20.259,2.944c39.274,0,71.111-31.837,71.111-71.111
	C426.668,181.974,406.359,155.374,378.184,145.92z"/>
<path style="fill:#31BAFD;" d="M378.184,145.92c-5.856-20.065-24.376-34.728-46.33-34.728c-2.181,0-4.324,0.159-6.427,0.438
	c-13.038-16.041-32.92-26.296-55.203-26.296c-0.338,0-0.669,0.028-1.005,0.033v225.456c4.846,1.345,9.952,2.067,15.227,2.067
	c22.249,0,41.5-12.779,50.852-31.389c6.423,1.907,13.219,2.944,20.259,2.944c39.274,0,71.111-31.837,71.111-71.111
	C426.668,181.974,406.359,155.374,378.184,145.92z"/>
<g>
</g>
<g>
</g>
<g>
</g>
<g>
</g>
<g>
</g>
<g>
</g>
<g>
</g>
<g>
</g>
<g>
</g>
<g>
</g>
<g>
</g>
<g>
</g>
<g>
</g>
<g>
</g>
<g>
</g>
</svg>
